<svg width="226" height="301" viewBox="0 0 226 301" fill="none" xmlns="http://www.w3.org/2000/svg">
<g clip-path="url(#clip0)">
<path d="M1.24005 251C-1.56995 252.76 1.24005 261.84 1.74005 263.5C2.10005 264.66 4.74005 274.28 12.2401 281C24.6501 292.12 42.8901 295.69 67.2401 298C86.847 299.877 106.551 300.545 126.24 300C160.49 299 177.9 298.38 192.74 290.5C201.21 286 221.74 275.1 224.74 254.5C227.74 233.9 211.24 217.92 208.74 215.5C188.49 195.84 159.92 199.2 157.74 199.5C141.55 201.73 128 210.83 126.24 208C125.53 206.86 127.65 205.26 130.24 200C132.24 195.84 133.11 192.49 135.24 181C136.54 174 137.18 170.49 138.24 164C140.86 147.88 142.58 146.43 148.24 120C151.01 107.05 148.75 116 152.24 98C154.93 84.08 155.73 79.82 153.24 75C151.18 71 148.24 69.36 148.24 65C148.24 62.76 149.05 61.91 150.24 56C150.697 54.0226 151.031 52.0187 151.24 50C151.679 45.3436 151.679 40.6563 151.24 36C149.17 16.4 151.3 1.99998 147.24 0.999981C143.99 0.189981 138.98 8.46998 136.24 13C130.68 22.18 130.35 28 128.24 28C123.61 28.09 121.76 0.189981 116.24 -1.87282e-05C113.02 -0.110019 110.05 9.27998 108.24 15C105.03 25.16 108.44 29.32 104.24 35C102.48 37.38 101.59 37.22 96.2401 43C95.9201 43.35 92.66 46.88 90.2401 50C88.6294 52.0322 87.2194 54.2157 86.03 56.52C83.92 60.67 84.2201 61.52 81.6201 66.89C80.6654 69.0171 79.5348 71.0609 78.2401 73C76.74 75.1331 75.0677 77.1398 73.2401 79C71.6827 80.7725 70.0126 82.4427 68.2401 84C65.7501 86.06 64.4601 86.56 64.2401 88C64.0201 89.44 65.2401 91.17 66.2401 92C69.58 94.63 75.2401 92.23 79.2401 91C88.5201 88.12 89.9301 89.88 104.24 90C122.35 90.15 134.98 82.24 135.24 83C135.5 83.76 125.98 90.22 114.24 92C111.84 92.37 108.55 92.65 105.24 95C102.529 97.0511 100.45 99.8233 99.2401 103C93.2401 116.8 90.2401 123.7 88.7401 125.5C79.0301 137 56.1501 136.1 54.2401 136C47.68 135.66 41.2401 134 38.7401 137.5C37.3501 139.44 37.5701 142.5 38.7401 144.5C41.5201 149.35 49.98 149.18 58.2401 149C66.66 148.82 71.5001 148.72 77.7401 146.5C81.2501 145.25 83.84 143.82 85.2401 145C86.9601 146.46 86.2401 151.34 83.7401 154.5C80.5401 158.59 74.91 159.19 66.2401 160C55.8901 161 51.7301 159.64 49.7401 162.5C47.9601 165.06 48.8301 169.64 51.2401 172C54.3601 175.05 59.93 174.23 68.2401 173C75.8 171.88 78.83 170.38 80.2401 172C81.6501 173.62 79.7001 176 78.2401 182C75.7401 192.32 78.5401 196.67 75.2401 200C72.8201 202.44 69.51 201.92 64.2401 202C45.4501 202.29 44.2401 209.59 28.2401 209C17.0501 208.59 12.0701 204.8 9.24005 208C6.41005 211.2 7.88005 219.08 12.2401 222C14.8401 223.74 17.8601 223.32 20.2401 223C28.0501 222 36.0801 222.33 43.7401 220.5C60.4901 216.5 80.62 216.37 81.2401 219C81.66 220.77 73.12 223.05 47.2401 234C42.2401 236.13 39.0501 237.52 34.2401 238C27.4201 238.68 24.1401 236.86 22.2401 239C19.8001 241.75 21.5101 248.91 25.7401 251.5C28.6001 253.25 31.9301 252.5 34.2401 252C44.84 249.68 55.6101 248.19 66.2401 246C78.3801 243.5 76.4001 245.21 85.2401 243C100.24 239.25 101.9 235.32 110.24 236C116.11 236.48 116.13 238.5 129.24 242C135.85 243.77 138.51 244 143.24 245C160.42 248.76 174.64 256.94 174.24 258C173.84 259.06 157.24 250.43 131.74 247.5C115.076 245.43 98.1855 246.106 81.7401 249.5C68.5001 252.29 54.7401 257.2 34.7401 259.5C24.3601 260.69 19.1601 259.34 14.7401 257.5C7.37005 254.44 3.55005 249.55 1.24005 251Z" fill="#FF6922"/>
<path d="M108.99 53C111.889 53 114.24 50.6495 114.24 47.75C114.24 44.8505 111.889 42.5 108.99 42.5C106.09 42.5 103.74 44.8505 103.74 47.75C103.74 50.6495 106.09 53 108.99 53Z" stroke="white" stroke-width="3" stroke-miterlimit="10"/>
<path d="M128.99 59C131.889 59 134.24 56.6495 134.24 53.75C134.24 50.8505 131.889 48.5 128.99 48.5C126.091 48.5 123.74 50.8505 123.74 53.75C123.74 56.6495 126.091 59 128.99 59Z" stroke="white" stroke-width="3" stroke-miterlimit="10"/>
<path d="M91.24 149C90.08 147.73 92.75 145.18 94.24 137C95.09 132.36 94.44 132 95.24 127C96.37 119.91 98.93 112.82 100.24 113C101.55 113.18 100.8 119.72 102.24 120C104.43 120.43 108.24 104.63 110.24 105C111.24 105.2 111.24 109.81 111.24 111C111.17 119.16 108.24 124.43 109.24 125C110.41 125.67 114.71 118.32 116.24 119C117.94 119.75 116.86 130.71 110.24 139C103.76 147.12 93.24 151.14 91.24 149Z" fill="#FCFCFC"/>
<path d="M100.24 166C101.68 167.27 101.36 169.8 95.2401 188C91.1601 200.13 89.9601 203 88.2401 203C85.9301 203 83.8001 197.88 83.2401 194C82.8401 191.23 83.3801 190 85.2401 182C87.5401 172.13 87.4501 170.84 89.2401 169C92.3101 165.83 98.0001 164 100.24 166Z" fill="#FCFCFC"/>
<path d="M6.24007 260C4.76007 262.08 15.7201 274.49 30.2401 282C37.1521 285.494 44.5797 287.858 52.2401 289C60.4301 290.46 71.6101 291.24 72.2401 289C72.6101 287.68 69.2401 285.17 67.2401 284C64.8201 282.62 63.2401 282.59 63.2401 282C63.2401 280.86 69.0401 280.3 76.2401 278C78.1101 277.4 88.5501 274.06 88.2401 272C87.9601 270.16 79.1501 269.48 72.2401 270C66.0401 270.46 61.5701 271.88 61.2401 271C60.7601 269.73 69.8101 266 69.2401 264C68.8601 262.7 64.4301 262.93 63.2401 263C47.6301 263.91 39.7001 267.73 31.2401 268C16.5101 268.47 7.59007 258.11 6.24007 260Z" fill="#FCFCFC"/>
</g>
<defs>
<clipPath id="clip0">
<rect width="225.1" height="300.19" fill="white"/>
</clipPath>
</defs>
</svg>
