<svg width="190" height="251" viewBox="0 0 190 251" fill="none" xmlns="http://www.w3.org/2000/svg">
<path d="M55.6119 74.0966C54.4527 71.8921 61.4444 68.5532 66.027 60.8327C69.5863 54.8319 70.981 48.8037 75.0837 42.5377C79.9833 35.0367 82.5916 36.8205 85.9516 30.6459C88.3335 26.2642 87.5909 24.7549 90.9327 12.8082C94.338 0.605439 95.7056 0.00170262 96.3667 0.00170262C98.5041 -0.108068 100.478 5.10602 102.706 10.9787C106.202 20.2086 106.519 25.5507 108.14 25.6148C109.761 25.6788 110.196 20.8855 114.48 12.8082C115.92 10.1737 120.448 1.56593 123.084 2.28858C123.736 2.47153 124.143 3.20334 124.895 5.94759C126.393 11.7729 127.154 17.7666 127.159 23.7853C127.205 26.6942 127.159 28.7615 127.159 31.1033C127.069 39.336 127.014 43.5531 126.254 45.7393C124.488 50.7887 122.74 51.0998 122.631 54.8868C122.531 58.2714 124.098 59.5978 125.801 63.577C131.606 77.1519 126.408 92.2545 125.348 95.1359C120.82 108.427 121.363 110.321 120.086 117.886C119.18 123.319 118.438 127.271 110.857 152.765C106.601 167.045 105.278 171.371 107.235 172.89C109.345 174.527 114.1 171.975 118.103 169.231C124.264 166.821 130.63 164.984 137.122 163.742C149.928 161.135 167.987 166.011 179.235 178.836C181.481 181.397 192.041 193.472 189.65 208.565C189.224 211.255 187.766 218.417 179.688 226.86C164.545 242.685 144.267 245.686 120.82 248.814C105.505 250.863 90.3803 250.205 60.1402 248.814C42.7424 248.018 29.0035 247.36 18.0269 238.295C13.7634 234.626 10.0962 230.305 7.15896 225.488C3.53631 219.561 -2.12408 207.907 0.819325 205.364C3.76273 202.821 12.1039 213.349 26.6307 215.883C36.267 217.566 40.75 214.182 54.7062 210.395C60.1402 208.913 89.2844 201.366 119.461 207.193C134.486 210.093 144.729 215.334 145.273 214.054C145.816 212.773 137.411 206.297 126.706 203.534C118.085 201.32 114.081 203.132 102.254 199.875C95.9139 198.128 96.4573 197.451 92.7441 196.673C82.492 194.533 77.0127 201.65 61.0459 204.906C42.027 208.785 32.4722 213.834 25.725 208.565C22.5643 206.105 20.0194 201.641 21.1967 199.418C22.3741 197.195 26.3952 198.128 32.0647 197.588C38.1106 196.961 43.966 195.093 49.2723 192.1C64.1191 186.898 71.3644 183.544 71.0082 182.037C70.6097 180.391 60.9493 181.001 42.027 183.867C35.1168 184.343 29.0126 184.617 23.9137 184.782C17.2662 185.001 14.5039 184.955 12.1401 182.952C8.51746 179.915 7.43066 173.713 9.42312 171.975C11.4156 170.237 14.6669 173.805 21.1967 174.719C27.5364 175.634 29.3477 173.055 38.4043 171.06C53.0489 167.85 58.5463 172.24 62.8572 167.401C64.1704 165.929 64.9402 162.151 66.4799 154.595C67.9199 147.533 68.6082 143.975 67.3855 142.703C64.4874 139.712 57.55 145.447 47.4609 142.703C44.1462 141.788 42.6428 140.553 42.027 139.044C41.6621 138.134 41.5536 137.139 41.7134 136.171C41.8732 135.202 42.2952 134.297 42.9326 133.556C45.2058 131.241 48.6836 133.885 55.6119 133.556C57.7312 133.455 64.7591 133.034 69.1968 128.067C69.6134 127.6 73.064 123.667 71.9138 121.664C70.7636 119.66 66.4799 120.914 55.6119 122.578C39.79 125.021 36.6745 124.536 34.7817 122.578C32.2911 120.017 32.0647 115.068 33.876 113.431C35.3885 112.086 37.5983 113.641 42.027 114.346C45.3417 114.876 46.5553 114.401 61.0459 111.601C71.4791 109.589 71.778 109.662 72.8195 108.857C77.864 104.96 77.864 97.5509 80.0648 91.4769C80.5357 90.1597 83.2527 83.0246 89.5743 79.1278C96.6747 74.7461 103.449 78.5881 110.404 72.7245C110.577 72.5781 113.62 69.9802 113.121 69.0655C112.623 68.1507 108.439 69.9254 101.348 71.8097C97.8701 72.7245 89.3297 74.1881 82.7818 75.0114H71.9138C70.1057 74.8572 68.288 74.8572 66.4799 75.0114L62.4044 75.4688C60.1583 75.7249 59.0081 75.8438 57.8761 75.4688C57.2149 75.2584 56.0013 74.8559 55.6119 74.0966Z" fill="#FF5201"/>
<path d="M76.8952 124.865C75.8718 123.95 76.8952 121.965 77.8008 116.632C78.6522 111.528 78.0363 111.391 78.7065 107.485C79.8295 100.871 82.7729 94.4222 84.1405 94.6783C85.508 94.9345 84.9556 100.999 85.9518 101.082C86.6944 101.146 87.2107 97.7153 89.5744 92.8488C89.9911 91.9341 92.4001 87.0767 93.1971 87.3603C93.9941 87.6439 93.0703 93.1416 92.2914 96.5078C91.5578 99.6729 90.788 101.63 91.3858 101.996C92.2914 102.554 94.9088 98.7033 95.9141 99.2521C96.9194 99.801 95.1896 105.198 94.1028 108.4C92.7714 112.324 92.0741 114.327 90.4801 116.632C89.0083 118.775 87.1678 120.634 85.0461 122.121C84.5118 122.487 78.7065 126.484 76.8952 124.865Z" fill="#FCFCFC"/>
<path d="M76.8952 165.114C77.6318 163.711 77.9466 162.122 77.8009 160.541C77.8009 158.107 79.0235 154.65 81.4235 147.734C83.733 141.065 84.9737 139.501 84.1405 138.586C82.936 137.315 78.7065 138.833 75.9896 141.331C73.7616 143.389 72.9918 145.749 71.4612 150.478C70.3473 153.899 69.5865 156.314 69.6499 159.626C69.6499 161.053 69.7858 167.118 72.3669 167.859C73.9156 168.316 75.9262 166.697 76.8952 165.114Z" fill="#F9F7F7"/>
<path d="M5.34777 211.767C4.17947 213.194 7.28589 217.612 8.97042 219.999C12.9211 225.572 18.0072 230.226 23.8867 233.648C37.7524 241.725 53.9275 244.167 54.96 241.661C55.3947 240.618 53.3569 238.395 52.4422 237.38C50.2233 234.956 48.2581 234.471 48.3939 233.721C48.566 232.742 52.1071 233.025 56.6807 232.358C60.4211 231.809 67.7751 230.199 67.8385 228.223C67.8928 226.531 62.5585 224.838 59.2075 224.18C53.3569 223.036 48.5569 224.061 48.3939 223.219C48.2943 222.661 50.3864 222.305 52.4422 219.99C53.1305 219.222 54.8241 217.337 54.4347 216.414C53.529 214.108 41.1124 221.262 26.9569 219.213C14.7576 217.466 7.0323 209.708 5.34777 211.767Z" fill="white"/>
<circle cx="91.1438" cy="40.2729" r="4.29906" stroke="white" stroke-width="2"/>
<circle cx="107.041" cy="45.5719" r="4.29906" stroke="white" stroke-width="2"/>
</svg>
